<svg width="81" height="76" viewBox="0 0 81 76" fill="none" xmlns="http://www.w3.org/2000/svg">
<path d="M43.6385 16.2469L40.1909 9.94767L36.2507 5.70891L31.044 2.70646L23.3747 2L17.6755 4.59035L15.2128 7.1807L14.2278 8.00491L0.999997 13.2445L15.2128 14.834L18.6605 16.2469L19.6456 18.2486L20.7713 21.5454V26.7261L22.0378 34.3794L25.3448 43.5634L30.0589 47.8021L32.3808 49.2739H4.44767V52.6885H38.5726L43.6385 55.1611L49.6895 58.1635L53.4186 62.2845L56.3738 67.4652L58.8364 70.4677L64.8874 72.4105L70.3755 74L74.5268 72.4105L73.3307 70.4677L64.8874 60.1063L61.7212 54.2191V52.6885H81" stroke="black" stroke-width="2"/>
</svg>
